<svg width="512" height="512" viewBox="0 0 512 512" xmlns="http://www.w3.org/2000/svg">
    <!-- Background circle -->
    <circle cx="256" cy="256" r="240" fill="#1e1e1e" stroke="#3c3c3c" stroke-width="2" />

    <!-- Document/Notebook -->
    <rect x="160" y="120" width="200" height="280" rx="8" fill="#2d2d30" stroke="#3c3c3c"
        stroke-width="2" />

    <!-- Document lines -->
    <line x1="180" y1="160" x2="340" y2="160" stroke="#cccccc" stroke-width="2"
        stroke-linecap="round" />
    <line x1="180" y1="180" x2="320" y2="180" stroke="#cccccc" stroke-width="2"
        stroke-linecap="round" />
    <line x1="180" y1="200" x2="340" y2="200" stroke="#cccccc" stroke-width="2"
        stroke-linecap="round" />
    <line x1="180" y1="220" x2="300" y2="220" stroke="#cccccc" stroke-width="2"
        stroke-linecap="round" />
    <line x1="180" y1="240" x2="340" y2="240" stroke="#cccccc" stroke-width="2"
        stroke-linecap="round" />
    <line x1="180" y1="260" x2="280" y2="260" stroke="#cccccc" stroke-width="2"
        stroke-linecap="round" />
    <line x1="180" y1="280" x2="340" y2="280" stroke="#cccccc" stroke-width="2"
        stroke-linecap="round" />
    <line x1="180" y1="300" x2="320" y2="300" stroke="#cccccc" stroke-width="2"
        stroke-linecap="round" />
    <line x1="180" y1="320" x2="340" y2="320" stroke="#cccccc" stroke-width="2"
        stroke-linecap="round" />
    <line x1="180" y1="340" x2="300" y2="340" stroke="#cccccc" stroke-width="2"
        stroke-linecap="round" />
    <line x1="180" y1="360" x2="340" y2="360" stroke="#cccccc" stroke-width="2"
        stroke-linecap="round" />

    <!-- Pencil -->
    <g transform="translate(320, 140) rotate(45)">
        <!-- Pencil body -->
        <rect x="0" y="0" width="40" height="6" rx="3" fill="#007acc" />
        <!-- Pencil tip -->
        <polygon points="40,0 50,3 40,6" fill="#ff6b35" />
        <!-- Pencil eraser -->
        <rect x="-8" y="0" width="8" height="6" rx="3" fill="#ff6b35" />
    </g>

    <!-- Highlighted text line (showing it's being edited) -->
    <rect x="180" y="200" width="160" height="20" fill="#007acc" opacity="0.2" rx="2" />

    <!-- Small accent dots -->
    <circle cx="200" cy="100" r="4" fill="#007acc" opacity="0.6" />
    <circle cx="280" cy="90" r="3" fill="#007acc" opacity="0.4" />
    <circle cx="320" cy="110" r="3" fill="#007acc" opacity="0.5" />
</svg>
